<svg xmlns="http://www.w3.org/2000/svg" width="216" height="138" viewBox="0 0 216 138">
    <defs>
        <linearGradient id="jsyslnsy5b" x1="50%" x2="50%" y1="139.358%" y2="12.494%">
            <stop offset="0%" stop-color="#E8F0F4"/>
            <stop offset="100%" stop-color="#FFF"/>
        </linearGradient>
        <filter id="ajmnqwo5pa" width="120.1%" height="136.7%" x="-10%" y="-18.4%" filterUnits="objectBoundingBox">
            <feGaussianBlur in="SourceGraphic" stdDeviation="6"/>
        </filter>
    </defs>
    <g fill="none" fill-rule="evenodd">
        <g>
            <g>
                <g>
                    <g>
                        <g>
                            <path d="M172.322 53.741c9.928 5.39 9.928 14.183.142 19.572l-64.106 35.173c-9.927 5.39-25.954 5.39-35.882 0L7.946 73.313c-9.928-5.39-9.928-14.183-.142-19.572l64.105-35.173c9.928-5.39 25.954-5.39 35.882 0l64.531 35.173z" filter="url(#ajmnqwo5pa)" transform="translate(-80 -575) translate(54 541) translate(0 34) translate(44) translate(0 7)"/>
                            <path fill="#E4ECEF" d="M174.932 49.77v1.418c0 .142 0 .284-.142.284s0 .142-.142.284c-.015.107-.065.207-.142.283 0 .142-.142.142-.142.284s-.142.284-.142.425c0 .142-.141.142-.141.284s-.142.284-.142.425c0 .142-.142.142-.142.284s-.142.284-.284.426c-.142.141-.142.141-.142.283s-.283.284-.283.426l-.142.142c-.142.283-.425.425-.567.709l-.142.142c-.142.141-.284.425-.567.567l-.284.283c-.142.142-.284.142-.284.284s-.283.142-.283.284-.284.142-.426.283c-.142.142-.284.142-.425.284-.142.142-.284.142-.426.284-.142.142-.283.142-.425.283-.142.142-.284.142-.426.284-.156.15-.354.248-.567.284l-60.56 35.173c-.567.283-.993.567-1.56.85-.142 0-.284.142-.425.142-.568.284-.993.426-1.56.71-.079 0-.142.063-.142.141-.544.253-1.115.443-1.702.568-.408.161-.839.257-1.277.283-.325.114-.656.208-.992.284-.426.142-.851.142-1.277.284-.425.141-.709.141-.993.141h-.425c-.567.142-1.135.142-1.702.284h-.425c-.338-.023-.676.025-.993.142-.568 0-1.135.142-1.56.142h-4.68c-.384.023-.769-.025-1.135-.142-.426 0-.851-.142-1.135-.142-.283 0-.709-.142-1.134-.142-.438-.026-.87-.122-1.277-.283-.283 0-.709-.142-.993-.142-.567-.142-.992-.284-1.418-.426-.425-.142-.709-.142-.993-.283-.283-.142-.283-.142-.567-.142-.495-.127-.972-.318-1.418-.568-.142 0-.284-.141-.426-.141-.45-.13-.88-.32-1.276-.568-.142-.142-.426-.142-.567-.283l-1.702-.851-60.986-35.173c-4.68-2.695-7.09-6.24-7.09-9.928v6.524c0 3.546 2.41 7.091 7.09 9.928l60.986 35.173 1.702.85c.141.142.425.142.567.284.425.142.709.284 1.134.426h.142c.142 0 .284.142.426.142.495.127.972.317 1.418.567.142 0 .284.142.567.142.108.015.207.065.284.142.142 0 .425.141.567.141l1.419.426c.155-.019.312.033.425.142.2-.022.4.029.567.142.426.141.851.141 1.277.283.198-.006.395.043.567.142h.567c.426 0 .851.142 1.135.142h5.815c.524.03 1.05-.018 1.56-.142h1.418c.577-.025 1.148-.12 1.702-.284h.567c.24-.033.476-.08.71-.141.425-.142.85-.142 1.276-.284.325-.114.657-.208.993-.284.408-.161.838-.257 1.276-.283.142 0 .142 0 .284-.142.495-.127.972-.318 1.418-.568.078 0 .142-.063.142-.141.545-.177 1.068-.415 1.56-.71.142 0 .284-.141.425-.141.536-.254 1.057-.538 1.56-.851l60.56-35.173c.142 0 .142-.142.284-.142s.142-.142.284-.142c.141 0 .283-.142.425-.283.142-.142.284-.142.426-.284.141-.142.283-.142.425-.284.142-.142.284-.142.425-.283.142-.142.284-.142.426-.284.142-.142.284-.142.284-.284s.283-.142.283-.283l.142-.142.142-.142.567-.567.142-.142c.23-.2.423-.44.567-.71l.142-.141c.142-.142.284-.284.284-.426 0-.141.142-.141.142-.283s.141-.284.283-.426l.284-.283c0-.142.141-.284.141-.426 0-.141.142-.141.142-.283s.142-.284.142-.426v-.284c.015-.107.065-.207.142-.283 0-.142 0-.142.142-.284s0-.284.142-.284v-8.225c.284.141.284.283.284.425z" transform="translate(-80 -575) translate(54 541) translate(0 34) translate(44) translate(0 7)"/>
                            <path fill="url(#jsyslnsy5b)" d="M167.84 39.417c9.36 5.39 9.503 14.182.142 19.572l-60.56 35.173c-9.36 5.389-24.535 5.389-33.896 0L12.541 58.989c-9.36-5.39-9.503-14.183-.142-19.572l60.56-35.173c9.36-5.39 24.536-5.39 33.896 0l60.985 35.173z" transform="translate(-80 -575) translate(54 541) translate(0 34) translate(44) translate(0 7)"/>
                        </g>
                        <g fill-rule="nonzero">
                            <path fill="#DCA700" d="M17.235 9.261c-.003-2.246 1.626-4.615 4.814-6.465 5.824-3.38 14.634-3.747 19.677-.82 2.26 1.312 3.377 3.063 3.401 4.9h.001v5.701h-.003c0 .018-.002.037-.001.056h.004v5.611h-.003c0 .018-.002.037-.001.056h.004v2.912h-.003c.001.045-.003.09-.003.134h.006v2.912h-.003c.063 2.282-1.566 4.704-4.811 6.587-5.824 3.38-14.634 3.747-19.678.82-2.339-1.357-3.442-3.186-3.388-5.093l.003-2.843c-.002-.067-.004-.135-.003-.203l.002-2.843c0-.042-.003-.083-.002-.125v-2.843l.002-2.699c0-.042-.003-.083-.002-.125l-.017-2.787V9.261h.004z" transform="translate(-80 -575) translate(54 541) translate(0 34) translate(44) translate(55)"/>
                            <g fill="#CC8200">
                                <path d="M3.506 7.447c5.161 2.905 14.175 2.54 20.134-.814C26.934 4.78 28.597 2.4 28.562.153l.004-.001v2.89h-.003c.064 2.265-1.602 4.668-4.923 6.537-5.959 3.354-14.973 3.718-20.134.813C1.113 9.045-.014 7.231.04 5.338l.002-2.82C.038 4.365 1.166 6.13 3.506 7.447z" transform="translate(-80 -575) translate(54 541) translate(0 34) translate(44) translate(55) translate(17.23 12.308)"/>
                                <path d="M3.506 13.07c5.161 2.905 14.175 2.541 20.134-.813 3.294-1.854 4.957-4.233 4.922-6.481h.004v2.89h-.003c.064 2.265-1.602 4.668-4.923 6.537-5.959 3.354-14.973 3.718-20.134.813C1.113 14.67-.014 12.855.04 10.963l.002-2.82c-.004 1.846 1.124 3.61 3.464 4.928z" transform="translate(-80 -575) translate(54 541) translate(0 34) translate(44) translate(55) translate(17.23 12.308)"/>
                            </g>
                            <path fill="#DCA700" d="M22.048 2.834c-5.823 3.425-6.456 8.607-1.413 11.574 5.044 2.966 13.853 2.594 19.676-.831 5.823-3.426 6.456-8.608 1.413-11.574-5.044-2.967-13.853-2.595-19.676.83z" transform="translate(-80 -575) translate(54 541) translate(0 34) translate(44) translate(55)"/>
                            <path fill="#CC8200" d="M45.127 6.564c.03 2.26-1.6 4.651-4.814 6.515-5.824 3.378-14.633 3.744-19.677.82-2.283-1.325-3.399-3.096-3.401-4.952h-.004v2.842s.086 3.117 3.405 5.087c5.013 2.977 13.853 2.558 19.677-.82 3.246-1.882 4.874-4.301 4.812-6.582h.003v-2.91z" transform="translate(-80 -575) translate(54 541) translate(0 34) translate(44) translate(55)"/>
                            <path fill="#FFD800" d="M23.66 3.908c-4.796 2.74-5.317 6.886-1.164 9.26 4.153 2.372 11.408 2.075 16.204-.666 4.795-2.74 5.316-6.885 1.163-9.259C35.71.87 28.455 1.168 23.659 3.908z" transform="translate(-80 -575) translate(54 541) translate(0 34) translate(44) translate(55)"/>
                            <path fill="#DCA700" d="M25.017 7.41c-.738 2.053 2.679 3.64 4.175 4.172 1.944.69 4.091.846 6.018-.002l1.304.728 1.23-.686-1.308-.73c.506-.358.88-.74 1.116-1.147l-2.1-1.172c-.269.464-.615.86-1.04 1.19l-5.295-2.954c.565-.212 1.192-.328 1.786-.427l-1.297-1.459c-.962.156-1.811.402-2.551.735l-1.21-.675-1.23.686 1.237.69c-.42.326-.7.676-.835 1.05-.194.542.135-.374 0 0zm2.992.153l5.022 2.801c-1.124.188-5.8-1.089-5.022-2.801z" transform="translate(-80 -575) translate(54 541) translate(0 34) translate(44) translate(55)"/>
                            <path fill="#007A6E" d="M95.179 24.92L95.179 37.22 31.727 73.846 0 55.513 0 43.275 0 43.275 63.453 6.564 95.179 24.92" transform="translate(-80 -575) translate(54 541) translate(0 34) translate(44) translate(55)"/>
                            <path fill="#009F5E" d="M95.179 24.615L95.179 36.992 32 73.846 32 61.577z" transform="translate(-80 -575) translate(54 541) translate(0 34) translate(44) translate(55)"/>
                            <g fill="#00917F">
                                <path d="M31.725 36.841L95.179 0.14 95.179 2.59 31.725 39.303 0.045 20.985 0.045 18.536z" transform="translate(-80 -575) translate(54 541) translate(0 34) translate(44) translate(55) translate(0 27.077)"/>
                                <path d="M31.737 41.721L95.179 5.039 95.179 7.489 31.737 44.182 0 25.856 0 23.409z" transform="translate(-80 -575) translate(54 541) translate(0 34) translate(44) translate(55) translate(0 27.077)"/>
                            </g>
                            <g fill="#00AC65">
                                <path d="M63.179.14L63.179 2.59.122 39.303.122 36.841zM63.179 5.039L63.179 7.489.134 44.182.134 41.721z" transform="translate(-80 -575) translate(54 541) translate(0 34) translate(44) translate(55) translate(32 27.077)"/>
                            </g>
                            <path fill="#00C169" d="M11.621 49.917L0 43.199 0 43.199 0 43.199 63.453 6.564 95.179 24.882 31.727 61.538z" transform="translate(-80 -575) translate(54 541) translate(0 34) translate(44) translate(55)"/>
                            <path fill="#FFE6C6" d="M6.564 42.741L32.194 57.436 89.436 24.551 63.816 9.846z" transform="translate(-80 -575) translate(54 541) translate(0 34) translate(44) translate(55)"/>
                            <path fill="#00AC65" d="M82.872 25.317L63.314 13.949 12.308 43.661 31.813 54.974z" transform="translate(-80 -575) translate(54 541) translate(0 34) translate(44) translate(55)"/>
                            <path fill="#E5AC91" d="M42.328 18.872L73.846 37.176 73.846 49.401 52.878 61.538 52.878 49.355 21.333 31.059z" transform="translate(-80 -575) translate(54 541) translate(0 34) translate(44) translate(55)"/>
                            <path fill="#FFD6A0" d="M42.328 18.872L73.846 37.101 52.878 49.231 21.333 31.009z" transform="translate(-80 -575) translate(54 541) translate(0 34) translate(44) translate(55)"/>
                            <path fill="#E5AC91" d="M52.513 49.229L52.513 61.538 73.846 49.275 73.846 36.923z" transform="translate(-80 -575) translate(54 541) translate(0 34) translate(44) translate(55)"/>
                            <path fill="#FFE6C6" d="M23.795 29.395L39.41 20.513 71.385 38.713 55.795 47.59z" transform="translate(-80 -575) translate(54 541) translate(0 34) translate(44) translate(55)"/>
                            <path fill="#FFCBA1" d="M71.385 38.564L71.385 50.913 55.795 59.897 55.796 47.579z" transform="translate(-80 -575) translate(54 541) translate(0 34) translate(44) translate(55)"/>
                            <g fill="#FFE6C6">
                                <path d="M53.2 4.222c1.82 1.045 4.574 1.158 6.151.254 1.577-.905 1.379-2.486-.442-3.53C57.09-.1 54.335-.213 52.76.692c-1.577.905-1.38 2.486.441 3.53zM54.996 13.34c1.054.606 2.65.671 3.562.147.913-.524.799-1.44-.255-2.044-1.055-.605-2.65-.671-3.563-.147-.913.524-.799 1.44.256 2.045zM19.685 33.563c1.054.605 2.65.671 3.562.147.913-.524.799-1.44-.255-2.045-1.055-.605-2.65-.67-3.563-.146-.913.524-.799 1.439.256 2.044zM1.554 33.902c1.82 1.045 4.574 1.159 6.151.254s1.379-2.485-.441-3.53c-1.821-1.045-4.575-1.158-6.151-.254-1.577.905-1.38 2.486.441 3.53zM72.31 15.213c1.821 1.045 4.575 1.158 6.152.254 1.576-.905 1.379-2.486-.442-3.53-1.82-1.045-4.574-1.159-6.15-.254-1.578.905-1.38 2.485.44 3.53zM20.569 44.902c1.82 1.045 4.574 1.158 6.15.254 1.577-.905 1.38-2.485-.441-3.53-1.82-1.045-4.574-1.158-6.15-.254-1.577.905-1.38 2.485.44 3.53z" transform="translate(-80 -575) translate(54 541) translate(0 34) translate(44) translate(55) translate(8.205 10.667)"/>
                            </g>
                            <g fill="#E6C190">
                                <path d="M31.165 14.863L5.358.023 2.601 1.609 28.408 16.481zM22.547 16.331L2.838 4.985.096 6.572 19.806 17.898z" transform="translate(-80 -575) translate(54 541) translate(0 34) translate(44) translate(55) translate(33.641 23.795)"/>
                            </g>
                        </g>
                    </g>
                </g>
            </g>
        </g>
    </g>
</svg>
