<svg xmlns="http://www.w3.org/2000/svg" width="216" height="160" viewBox="0 0 216 160">
    <defs>
        <linearGradient id="kw3j58fmnb" x1="50%" x2="50%" y1="139.358%" y2="12.494%">
            <stop offset="0%" stop-color="#E8F0F4"/>
            <stop offset="100%" stop-color="#FFF"/>
        </linearGradient>
        <filter id="68xd1hugha" width="120.1%" height="136.7%" x="-10%" y="-18.4%" filterUnits="objectBoundingBox">
            <feGaussianBlur in="SourceGraphic" stdDeviation="6"/>
        </filter>
    </defs>
    <g fill="none" fill-rule="evenodd">
        <g>
            <g>
                <g>
                    <g>
                        <g>
                            <path d="M172.322 53.741c9.928 5.39 9.928 14.183.142 19.572l-64.106 35.173c-9.927 5.39-25.954 5.39-35.882 0L7.946 73.313c-9.928-5.39-9.928-14.183-.142-19.572l64.105-35.173c9.928-5.39 25.954-5.39 35.882 0l64.531 35.173z" filter="url(#68xd1hugha)" transform="translate(-402 -553) translate(54 541) translate(322 12) translate(44) translate(0 29)"/>
                            <path fill="#E4ECEF" d="M174.932 49.77v1.418c0 .142 0 .284-.142.284s0 .142-.142.284c-.015.107-.065.207-.142.283 0 .142-.142.142-.142.284s-.142.284-.142.425c0 .142-.141.142-.141.284s-.142.284-.142.425c0 .142-.142.142-.142.284s-.142.284-.284.426c-.142.141-.142.141-.142.283s-.283.284-.283.426l-.142.142c-.142.283-.425.425-.567.709l-.142.142c-.142.141-.284.425-.567.567l-.284.283c-.142.142-.284.142-.284.284s-.283.142-.283.284-.284.142-.426.283c-.142.142-.284.142-.425.284-.142.142-.284.142-.426.284-.142.142-.283.142-.425.283-.142.142-.284.142-.426.284-.156.15-.354.248-.567.284l-60.56 35.173c-.567.283-.993.567-1.56.85-.142 0-.284.142-.425.142-.568.284-.993.426-1.56.71-.079 0-.142.063-.142.141-.544.253-1.115.443-1.702.568-.408.161-.839.257-1.277.283-.325.114-.656.208-.992.284-.426.142-.851.142-1.277.284-.425.141-.709.141-.993.141h-.425c-.567.142-1.135.142-1.702.284h-.425c-.338-.023-.676.025-.993.142-.568 0-1.135.142-1.56.142h-4.68c-.384.023-.769-.025-1.135-.142-.426 0-.851-.142-1.135-.142-.283 0-.709-.142-1.134-.142-.438-.026-.87-.122-1.277-.283-.283 0-.709-.142-.993-.142-.567-.142-.992-.284-1.418-.426-.425-.142-.709-.142-.993-.283-.283-.142-.283-.142-.567-.142-.495-.127-.972-.318-1.418-.568-.142 0-.284-.141-.426-.141-.45-.13-.88-.32-1.276-.568-.142-.142-.426-.142-.567-.283l-1.702-.851-60.986-35.173c-4.68-2.695-7.09-6.24-7.09-9.928v6.524c0 3.546 2.41 7.091 7.09 9.928l60.986 35.173 1.702.85c.141.142.425.142.567.284.425.142.709.284 1.134.426h.142c.142 0 .284.142.426.142.495.127.972.317 1.418.567.142 0 .284.142.567.142.108.015.207.065.284.142.142 0 .425.141.567.141l1.419.426c.155-.019.312.033.425.142.2-.022.4.029.567.142.426.141.851.141 1.277.283.198-.006.395.043.567.142h.567c.426 0 .851.142 1.135.142h5.815c.524.03 1.05-.018 1.56-.142h1.418c.577-.025 1.148-.12 1.702-.284h.567c.24-.033.476-.08.71-.141.425-.142.85-.142 1.276-.284.325-.114.657-.208.993-.284.408-.161.838-.257 1.276-.283.142 0 .142 0 .284-.142.495-.127.972-.318 1.418-.568.078 0 .142-.063.142-.141.545-.177 1.068-.415 1.56-.71.142 0 .284-.141.425-.141.536-.254 1.057-.538 1.56-.851l60.56-35.173c.142 0 .142-.142.284-.142s.142-.142.284-.142c.141 0 .283-.142.425-.283.142-.142.284-.142.426-.284.141-.142.283-.142.425-.284.142-.142.284-.142.425-.283.142-.142.284-.142.426-.284.142-.142.284-.142.284-.284s.283-.142.283-.283l.142-.142.142-.142.567-.567.142-.142c.23-.2.423-.44.567-.71l.142-.141c.142-.142.284-.284.284-.426 0-.141.142-.141.142-.283s.141-.284.283-.426l.284-.283c0-.142.141-.284.141-.426 0-.141.142-.141.142-.283s.142-.284.142-.426v-.284c.015-.107.065-.207.142-.283 0-.142 0-.142.142-.284s0-.284.142-.284v-8.225c.284.141.284.283.284.425z" transform="translate(-402 -553) translate(54 541) translate(322 12) translate(44) translate(0 29)"/>
                            <path fill="url(#kw3j58fmnb)" d="M167.84 39.417c9.36 5.39 9.503 14.182.142 19.572l-60.56 35.173c-9.36 5.389-24.535 5.389-33.896 0L12.541 58.989c-9.36-5.39-9.503-14.183-.142-19.572l60.56-35.173c9.36-5.39 24.536-5.39 33.896 0l60.985 35.173z" transform="translate(-402 -553) translate(54 541) translate(322 12) translate(44) translate(0 29)"/>
                        </g>
                        <g fill-rule="nonzero" transform="translate(-402 -553) translate(54 541) translate(322 12) translate(44) translate(49)">
                            <g fill="#88B337">
                                <path d="M60.13 59.745c.001-.694-.19-1.375-.554-1.966l-3.526-5.693c-.44-.875-.667-1.842-.664-2.822V31.726c0-11.386-9.202-20.615-20.555-20.615h-9.487c-11.353 0-20.555 9.23-20.555 20.615v17.538c.003.98-.225 1.947-.664 2.822L.599 57.78c-.364.591-.555 1.272-.554 1.966.008 2.038 1.653 3.687 3.684 3.695h52.716c2.032-.008 3.677-1.657 3.685-3.695z" transform="translate(15.901)"/>
                                <path d="M34.831 11.111L42.737 0.011 17.438 0.011 25.344 11.111 25.344 14.283 34.831 14.283z" transform="translate(15.901)"/>
                            </g>
                            <path fill="#6B962A" d="M75.517 57.957L72 52.277c-.438-.873-.665-1.837-.662-2.815V31.965c.01-4.582-1.505-9.037-4.305-12.656-4.21 23.271-19.034 36.687-32.959 44.296h38.32c2.038.008 3.697-1.642 3.705-3.688.003-.693-.188-1.371-.55-1.96h-.032z"/>
                            <path fill="#FFF" d="M53.365 34.528v-1.017c-.008-2.947-2.391-5.335-5.331-5.343h-1.015v-3.18h-3.174v3.18H42.83c-2.945-.01-5.339 2.374-5.348 5.325-.008 2.24 1.38 4.247 3.476 5.027l2.887 1.08v6.06H42.83c-1.192 0-2.158-.97-2.158-2.163v-1.018H37.5v1.018c.008 2.946 2.391 5.334 5.331 5.342h5.204c2.945.01 5.34-2.374 5.349-5.325.008-2.24-1.38-4.247-3.477-5.026l-2.887-1.081v-6.059h1.015c1.192 0 2.158.969 2.158 2.163v1.017h3.173zm-4.57 6.933c.838.326 1.392 1.134 1.397 2.036 0 1.194-.966 2.163-2.158 2.163h-1.015v-4.866l1.777.667zm-4.95-5.247l-1.776-.668c-.838-.326-1.392-1.134-1.397-2.035 0-1.195.967-2.163 2.158-2.163h1.016v4.866z"/>
                            <g fill="#FDB62F">
                                <path d="M77.664 12.738c-.539-3.234-3.087-5.77-6.34-6.305 3.253-.536 5.801-3.07 6.34-6.306.54 3.235 3.088 5.77 6.34 6.306-3.252.536-5.8 3.07-6.34 6.305zM6.34 44.265c-.539-3.234-3.088-5.77-6.34-6.305 3.252-.536 5.801-3.07 6.34-6.305.539 3.234 3.088 5.769 6.34 6.305-3.252.536-5.801 3.07-6.34 6.305z" transform="translate(0 3.407)"/>
                            </g>
                            <path fill="#FEC9A3" d="M91.296 55.36c-1.302-2.164-4.099-2.93-6.342-1.738L62.457 63.11c-.396.166-.823.252-1.252.25H33.317c-1.752 0-3.17-1.401-3.17-3.131 0-1.73 1.418-3.131 3.17-3.131h12.684c5.254 0 9.512-4.206 9.512-9.394H29.132c-4.373.003-8.508 1.968-11.24 5.339L7.95 64.926l11.193 20.26 43.075-10.224c1.862-.425 3.663-1.076 5.359-1.942l22.196-11.226c2.208-1.37 2.887-4.24 1.522-6.434z"/>
                            <path fill="#F7BB8F" d="M15.901 78.764l3.545 6.421 42.808-10.177c1.85-.423 3.64-1.07 5.325-1.933l11.927-6.063c-19.82 6-46.132 9.741-63.605 11.752z"/>
                            <path fill="#4398D1" d="M0 63.767L0 92 20.303 92 24.988 87.295 6.247 59.062z"/>
                            <path fill="#3E8CC7" d="M0 92h20.303l4.685-4.868-3.436-5.354C14.605 84.757 7.384 86.99 0 88.447V92z"/>
                            <circle cx="14.765" cy="84.049" r="3.407" fill="#D9D9D9"/>
                        </g>
                    </g>
                </g>
            </g>
        </g>
    </g>
</svg>
